<?xml version="1.0" encoding="utf-8"?>
<!-- Generator: Adobe Illustrator 18.1.1, SVG Export Plug-In . SVG Version: 6.00 Build 0)  -->
<!DOCTYPE svg PUBLIC "-//W3C//DTD SVG 1.1//EN" "http://www.w3.org/Graphics/SVG/1.1/DTD/svg11.dtd">
<svg version="1.1" id="Layer_1" xmlns="http://www.w3.org/2000/svg" xmlns:xlink="http://www.w3.org/1999/xlink" x="0px" y="0px"
	 viewBox="0 0 960 560" enable-background="new 0 0 960 560" xml:space="preserve">
<g>
	<g>
		<line fill="none" stroke="#231F20" stroke-width="0.3963" stroke-miterlimit="10" x1="497.3" y1="11.6" x2="889.1" y2="70.3"/>
		<line fill="none" stroke="#231F20" stroke-width="0.3963" stroke-miterlimit="10" x1="485" y1="12.9" x2="883" y2="76.2"/>
		<line fill="none" stroke="#231F20" stroke-width="0.3963" stroke-miterlimit="10" x1="472" y1="14.2" x2="876.3" y2="82.8"/>
		<line fill="none" stroke="#231F20" stroke-width="0.3963" stroke-miterlimit="10" x1="458.4" y1="15.7" x2="868.8" y2="90.2"/>
		<line fill="none" stroke="#231F20" stroke-width="0.3963" stroke-miterlimit="10" x1="444" y1="17.2" x2="860.3" y2="98.4"/>
		<line fill="none" stroke="#231F20" stroke-width="0.3963" stroke-miterlimit="10" x1="428.9" y1="18.8" x2="850.7" y2="107.8"/>
		<line fill="none" stroke="#231F20" stroke-width="0.3963" stroke-miterlimit="10" x1="412.9" y1="20.4" x2="839.7" y2="118.6"/>
		<line fill="none" stroke="#231F20" stroke-width="0.3963" stroke-miterlimit="10" x1="396" y1="22.2" x2="827" y2="130.9"/>
		<line fill="none" stroke="#231F20" stroke-width="0.3963" stroke-miterlimit="10" x1="378.1" y1="24.1" x2="812.2" y2="145.4"/>
		<line fill="none" stroke="#231F20" stroke-width="0.3963" stroke-miterlimit="10" x1="359.2" y1="26.1" x2="794.7" y2="162.5"/>
		<line fill="none" stroke="#231F20" stroke-width="0.3963" stroke-miterlimit="10" x1="339" y1="28.2" x2="773.6" y2="183.1"/>
		<line fill="none" stroke="#231F20" stroke-width="0.3963" stroke-miterlimit="10" x1="317.6" y1="30.4" x2="747.9" y2="208.3"/>
		<line fill="none" stroke="#231F20" stroke-width="0.3963" stroke-miterlimit="10" x1="294.7" y1="32.8" x2="715.6" y2="239.9"/>
		<line fill="none" stroke="#231F20" stroke-width="0.3963" stroke-miterlimit="10" x1="270.2" y1="35.4" x2="673.9" y2="280.6"/>
		<line fill="none" stroke="#231F20" stroke-width="0.3963" stroke-miterlimit="10" x1="244" y1="38.1" x2="618.2" y2="335"/>
		<line fill="none" stroke="#231F20" stroke-width="0.3963" stroke-miterlimit="10" x1="215.8" y1="41.1" x2="539.8" y2="411.6"/>
		<line fill="none" stroke="#231F20" stroke-width="0.3963" stroke-miterlimit="10" x1="185.5" y1="44.3" x2="421.4" y2="527.3"/>
	</g>
	<line fill="none" stroke="#231F20" stroke-width="0.3963" stroke-miterlimit="10" x1="715.6" y1="44.3" x2="252.9" y2="182.2"/>
	<line fill="none" stroke="#231F20" stroke-width="0.3963" stroke-miterlimit="10" x1="694.3" y1="41.1" x2="242.9" y2="161.8"/>
	<line fill="none" stroke="#231F20" stroke-width="0.3963" stroke-miterlimit="10" x1="674.6" y1="38.2" x2="234.6" y2="144.8"/>
	<line fill="none" stroke="#231F20" stroke-width="0.3963" stroke-miterlimit="10" x1="656.3" y1="35.4" x2="227.6" y2="130.4"/>
	<line fill="none" stroke="#231F20" stroke-width="0.3963" stroke-miterlimit="10" x1="639.2" y1="32.9" x2="221.5" y2="118.1"/>
	<line fill="none" stroke="#231F20" stroke-width="0.3963" stroke-miterlimit="10" x1="623.2" y1="30.5" x2="216.3" y2="107.4"/>
	<line fill="none" stroke="#231F20" stroke-width="0.3963" stroke-miterlimit="10" x1="608.2" y1="28.2" x2="211.8" y2="98.1"/>
	<line fill="none" stroke="#231F20" stroke-width="0.3963" stroke-miterlimit="10" x1="594.1" y1="26.1" x2="207.8" y2="89.9"/>
	<line fill="none" stroke="#231F20" stroke-width="0.3963" stroke-miterlimit="10" x1="580.8" y1="24.1" x2="204.2" y2="82.5"/>
	<line fill="none" stroke="#231F20" stroke-width="0.3963" stroke-miterlimit="10" x1="568.3" y1="22.2" x2="201" y2="76"/>
	<line fill="none" stroke="#231F20" stroke-width="0.3963" stroke-miterlimit="10" x1="556.5" y1="20.4" x2="198.1" y2="70.1"/>
	<line fill="none" stroke="#231F20" stroke-width="0.3963" stroke-miterlimit="10" x1="545.3" y1="18.8" x2="195.5" y2="64.8"/>
	<line fill="none" stroke="#231F20" stroke-width="0.3963" stroke-miterlimit="10" x1="534.7" y1="17.2" x2="193.1" y2="59.9"/>
	<line fill="none" stroke="#231F20" stroke-width="0.3963" stroke-miterlimit="10" x1="524.7" y1="15.7" x2="191" y2="55.5"/>
	<line fill="none" stroke="#231F20" stroke-width="0.3963" stroke-miterlimit="10" x1="515.2" y1="14.2" x2="189" y2="51.5"/>
	<line fill="none" stroke="#231F20" stroke-width="0.3963" stroke-miterlimit="10" x1="506.1" y1="12.9" x2="187.2" y2="47.7"/>
	<line fill="none" stroke="#231F20" stroke-width="0.3963" stroke-miterlimit="10" x1="497.4" y1="11.6" x2="185.5" y2="44.3"/>
	<line fill="none" stroke="#231F20" stroke-width="0.3963" stroke-miterlimit="10" x1="889.1" y1="70.3" x2="421.4" y2="527.3"/>
	<line fill="none" stroke="#231F20" stroke-width="0.3963" stroke-miterlimit="10" x1="852" y1="64.8" x2="363.1" y2="407.8"/>
	<line fill="none" stroke="#231F20" stroke-width="0.3963" stroke-miterlimit="10" x1="819.8" y1="59.9" x2="326.2" y2="332.4"/>
	<line fill="none" stroke="#231F20" stroke-width="0.3963" stroke-miterlimit="10" x1="790.3" y1="55.5" x2="300" y2="278.7"/>
	<line fill="none" stroke="#231F20" stroke-width="0.3963" stroke-miterlimit="10" x1="763.3" y1="51.5" x2="280.3" y2="238.4"/>
	<line fill="none" stroke="#231F20" stroke-width="0.3963" stroke-miterlimit="10" x1="738.5" y1="47.7" x2="265" y2="207.2"/>
</g>
</svg>
